<svg width="29" height="28" viewBox="0 0 29 28" fill="none" xmlns="http://www.w3.org/2000/svg">
<path fill-rule="evenodd" clip-rule="evenodd" d="M7.9102 10.2102C8.17274 9.94775 8.52877 9.80031 8.9 9.80031C9.27123 9.80031 9.62726 9.94775 9.8898 10.2102L14.5 14.8204L19.1102 10.2102C19.2393 10.0765 19.3938 9.96984 19.5646 9.89647C19.7354 9.8231 19.9191 9.78447 20.105 9.78286C20.2909 9.78124 20.4753 9.81667 20.6473 9.88706C20.8194 9.95745 20.9757 10.0614 21.1072 10.1929C21.2386 10.3243 21.3426 10.4806 21.4129 10.6527C21.4833 10.8247 21.5188 11.0091 21.5171 11.195C21.5155 11.3809 21.4769 11.5646 21.4035 11.7354C21.3302 11.9062 21.2235 12.0607 21.0898 12.1898L15.4898 17.7898C15.2273 18.0523 14.8712 18.1997 14.5 18.1997C14.1288 18.1997 13.7727 18.0523 13.5102 17.7898L7.9102 12.1898C7.64774 11.9273 7.5003 11.5712 7.5003 11.2C7.5003 10.8288 7.64774 10.4727 7.9102 10.2102Z" fill="white"/>
</svg>
