<svg width="40" height="41" viewBox="0 0 40 41" fill="none" xmlns="http://www.w3.org/2000/svg">
<path d="M10 9H10.5V8.5V6.5C10.5 6.10218 10.658 5.72064 10.9393 5.43934C11.2206 5.15804 11.6022 5 12 5C12.3978 5 12.7794 5.15804 13.0607 5.43934C13.342 5.72064 13.5 6.10218 13.5 6.5V8.5V9H14H26H26.5V8.5V6.5C26.5 6.10218 26.658 5.72064 26.9393 5.43934C27.2206 5.15804 27.6022 5 28 5C28.3978 5 28.7794 5.15804 29.0607 5.43934C29.342 5.72064 29.5 6.10218 29.5 6.5V8.5V9H30H32C32.9283 9 33.8185 9.36875 34.4749 10.0251C35.1313 10.6815 35.5 11.5717 35.5 12.5V32.5C35.5 33.4283 35.1313 34.3185 34.4749 34.9749C33.8185 35.6313 32.9283 36 32 36H8C7.07174 36 6.1815 35.6313 5.52513 34.9749C4.86875 34.3185 4.5 33.4283 4.5 32.5V12.5C4.5 11.5717 4.86875 10.6815 5.52513 10.0251C6.1815 9.36875 7.07174 9 8 9H10ZM12 14C11.337 14 10.7011 14.2634 10.2322 14.7322C9.76339 15.2011 9.5 15.837 9.5 16.5C9.5 17.163 9.76339 17.7989 10.2322 18.2678C10.7011 18.7366 11.337 19 12 19H28C28.663 19 29.2989 18.7366 29.7678 18.2678C30.2366 17.7989 30.5 17.163 30.5 16.5C30.5 15.837 30.2366 15.2011 29.7678 14.7322C29.2989 14.2634 28.663 14 28 14H12Z" fill="#9CA3AF" stroke="#9CA3AF"/>
</svg>
