<?xml version="1.0" standalone="no"?>
<!DOCTYPE svg PUBLIC "-//W3C//DTD SVG 20010904//EN"
 "http://www.w3.org/TR/2001/REC-SVG-20010904/DTD/svg10.dtd">
<svg version="1.0" xmlns="http://www.w3.org/2000/svg"
 width="288.000000pt" height="332.000000pt" viewBox="0 0 288.000000 332.000000"
 preserveAspectRatio="xMidYMid meet">

<g transform="translate(0.000000,332.000000) scale(0.100000,-0.100000)"
fill="#9ca3af" stroke="none">
<path d="M925 3286 c-69 -30 -108 -112 -85 -180 14 -42 67 -92 109 -101 l31
-7 0 -356 0 -357 -290 -505 -290 -505 71 -23 c112 -35 231 -53 399 -59 259
-10 427 18 714 116 265 91 434 121 672 121 89 0 115 3 111 13 -3 6 -113 201
-246 432 l-241 419 0 352 0 352 35 6 c100 19 149 157 85 239 -45 57 -45 57
-567 57 -375 -1 -485 -4 -508 -14z"/>
<path d="M2070 1124 c-102 -13 -217 -43 -424 -110 -272 -89 -397 -113 -626
-121 -255 -9 -469 18 -677 85 -67 22 -95 27 -101 18 -13 -15 -164 -281 -192
-336 -131 -257 19 -574 301 -639 28 -7 418 -11 1079 -11 1130 0 1094 -2 1202
57 73 40 144 116 186 202 36 73 37 77 37 190 0 139 4 129 -168 430 -89 156
-129 216 -147 223 -25 10 -406 20 -470 12z"/>
</g>
</svg>
