<svg width="14" height="14" viewBox="0 0 14 14" fill="none" xmlns="http://www.w3.org/2000/svg">
<path fill-rule="evenodd" clip-rule="evenodd" d="M7.00002 12.6C8.48524 12.6 9.90962 12.01 10.9598 10.9598C12.01 9.90962 12.6 8.48524 12.6 7.00002C12.6 5.51481 12.01 4.09043 10.9598 3.04023C9.90962 1.99002 8.48524 1.40002 7.00002 1.40002C5.51481 1.40002 4.09043 1.99002 3.04023 3.04023C1.99002 4.09043 1.40002 5.51481 1.40002 7.00002C1.40002 8.48524 1.99002 9.90962 3.04023 10.9598C4.09043 12.01 5.51481 12.6 7.00002 12.6V12.6ZM7.70002 4.20002C7.70002 4.01437 7.62627 3.83633 7.495 3.70505C7.36372 3.57377 7.18568 3.50002 7.00002 3.50002C6.81437 3.50002 6.63633 3.57377 6.50505 3.70505C6.37377 3.83633 6.30002 4.01437 6.30002 4.20002V7.00002C6.30006 7.18566 6.37384 7.36368 6.50512 7.49492L8.48473 9.47523C8.54976 9.54026 8.62697 9.59185 8.71195 9.62705C8.79692 9.66225 8.888 9.68036 8.97997 9.68036C9.07195 9.68036 9.16303 9.66225 9.248 9.62705C9.33298 9.59185 9.41019 9.54026 9.47523 9.47523C9.54026 9.41019 9.59185 9.33298 9.62705 9.248C9.66225 9.16303 9.68036 9.07195 9.68036 8.97997C9.68036 8.888 9.66225 8.79692 9.62705 8.71195C9.59185 8.62697 9.54026 8.54976 9.47523 8.48473L7.70002 6.71023V4.20002Z" fill="#FACA15"/>
</svg>
