<svg width="14" height="14" viewBox="0 0 14 14" fill="none" xmlns="http://www.w3.org/2000/svg">
<path d="M3.84998 11.2C3.22315 11.1992 2.62047 10.9581 2.16597 10.5264C1.71147 10.0948 1.43971 9.5053 1.40662 8.87934C1.37353 8.25338 1.58162 7.63855 1.98807 7.16135C2.39453 6.68416 2.96843 6.38091 3.59168 6.314C3.40816 5.59432 3.51805 4.83122 3.89718 4.19256C4.2763 3.5539 4.8936 3.09201 5.61328 2.9085C6.33296 2.72498 7.09606 2.83487 7.73472 3.21399C8.37337 3.59312 8.83526 4.21042 9.01878 4.9301C9.44679 4.8705 9.88249 4.89961 10.2988 5.01561C10.7151 5.13162 11.103 5.33203 11.4385 5.60439C11.774 5.87676 12.0499 6.21524 12.249 6.59879C12.4481 6.98234 12.5661 7.40275 12.5958 7.83387C12.6254 8.265 12.566 8.69761 12.4213 9.1048C12.2766 9.512 12.0497 9.88506 11.7546 10.2008C11.4596 10.5165 11.1027 10.7682 10.7062 10.9401C10.3097 11.112 9.88212 11.2004 9.44998 11.2H3.84998Z" fill="#AC94FA"/>
</svg>
