<svg width="24" height="24" viewBox="0 0 24 24" fill="none" xmlns="http://www.w3.org/2000/svg">
<path fill-rule="evenodd" clip-rule="evenodd" d="M3.6 5.99998C3.6 5.36346 3.85285 4.75301 4.30294 4.30292C4.75303 3.85283 5.36348 3.59998 6 3.59998H18C18.6365 3.59998 19.247 3.85283 19.6971 4.30292C20.1471 4.75301 20.4 5.36346 20.4 5.99998V15.6C20.4 16.2365 20.1471 16.8469 19.6971 17.297C19.247 17.7471 18.6365 18 18 18H15.336L15.4836 18.5868L16.4484 19.5516C16.6162 19.7194 16.7304 19.9332 16.7767 20.1659C16.823 20.3987 16.7992 20.6399 16.7084 20.8592C16.6176 21.0784 16.4638 21.2658 16.2665 21.3977C16.0693 21.5295 15.8373 21.5999 15.6 21.6H8.4C8.1627 21.5999 7.93074 21.5295 7.73345 21.3977C7.53616 21.2658 7.38239 21.0784 7.29158 20.8592C7.20078 20.6399 7.17702 20.3987 7.2233 20.1659C7.26958 19.9332 7.38383 19.7194 7.5516 19.5516L8.5164 18.5868L8.664 18H6C5.36348 18 4.75303 17.7471 4.30294 17.297C3.85285 16.8469 3.6 16.2365 3.6 15.6V5.99998ZM10.5252 14.4H6V5.99998H18V14.4H10.5252Z" fill="#9CA3AF"/>
</svg>
