<svg width="40" height="41" viewBox="0 0 40 41" fill="none" xmlns="http://www.w3.org/2000/svg">
<path d="M13.2481 32.0659L13 31.9241L12.7519 32.0659L6.5 35.6384V8.5C6.5 7.57174 6.86875 6.6815 7.52513 6.02513C8.1815 5.36875 9.07174 5 10 5H30C30.9283 5 31.8185 5.36875 32.4749 6.02513C33.1313 6.6815 33.5 7.57174 33.5 8.5V35.6384L27.2481 32.0659L27 31.9241L26.7519 32.0659L20 35.9241L13.2481 32.0659ZM16.2386 8.72636L16.2386 8.7263L16.2324 8.73245L10.2324 14.7324L10.2324 14.7325C9.76372 15.2013 9.50043 15.8371 9.50043 16.5C9.50043 17.1629 9.76372 17.7987 10.2324 18.2675L10.2324 18.2676L16.2324 24.2676L16.2324 24.2676L16.2386 24.2736C16.7101 24.729 17.3417 24.981 17.9971 24.9753C18.6526 24.9696 19.2797 24.7067 19.7432 24.2432C20.2067 23.7797 20.4696 23.1526 20.4753 22.4971C20.481 21.8417 20.229 21.2101 19.7736 20.7386L19.7737 20.7386L19.7676 20.7324L18.0351 19H20C21.4587 19 22.8576 19.5795 23.8891 20.6109C24.9205 21.6424 25.5 23.0413 25.5 24.5V26.5C25.5 27.163 25.7634 27.7989 26.2322 28.2678C26.7011 28.7366 27.337 29 28 29C28.663 29 29.2989 28.7366 29.7678 28.2678C30.2366 27.7989 30.5 27.163 30.5 26.5V24.5C30.5 21.7152 29.3938 19.0445 27.4246 17.0754C25.4555 15.1062 22.7848 14 20 14H18.0351L19.7676 12.2676L19.414 11.914L19.7736 12.2614C20.229 11.7899 20.481 11.1583 20.4753 10.5029C20.4696 9.84736 20.2067 9.22033 19.7432 8.75681C19.2797 8.29329 18.6526 8.03037 17.9971 8.02467C17.3417 8.01897 16.7101 8.27096 16.2386 8.72636Z" fill="#9CA3AF" stroke="#9CA3AF"/>
</svg>
