<svg width="24" height="24" viewBox="0 0 24 24" fill="none" xmlns="http://www.w3.org/2000/svg">
<path fill-rule="evenodd" clip-rule="evenodd" d="M21.2484 11.1516C21.4734 11.3767 21.5997 11.6818 21.5997 12C21.5997 12.3182 21.4734 12.6234 21.2484 12.8484L12.8484 21.2484C12.6234 21.4734 12.3182 21.5998 12 21.5998C11.6818 21.5998 11.3766 21.4734 11.1516 21.2484L2.7516 12.8484C2.64 12.7371 2.55149 12.6049 2.49116 12.4593C2.43082 12.3137 2.39984 12.1576 2.4 12V6.00002C2.4 5.04524 2.77929 4.12957 3.45442 3.45444C4.12955 2.77931 5.04522 2.40002 6 2.40002H12C12.3072 2.40002 12.6144 2.51762 12.8484 2.75162L21.2484 11.1516ZM6 7.20002C6.31826 7.20002 6.62349 7.0736 6.84853 6.84855C7.07357 6.62351 7.2 6.31828 7.2 6.00002C7.2 5.68176 7.07357 5.37654 6.84853 5.1515C6.62349 4.92645 6.31826 4.80002 6 4.80002C5.68174 4.80002 5.37652 4.92645 5.15147 5.1515C4.92643 5.37654 4.8 5.68176 4.8 6.00002C4.8 6.31828 4.92643 6.62351 5.15147 6.84855C5.37652 7.0736 5.68174 7.20002 6 7.20002Z" fill="#9CA3AF"/>
</svg>
