<svg width="40" height="40" viewBox="0 0 40 40" fill="none" xmlns="http://www.w3.org/2000/svg">
<path d="M26.5 32.0007C26.5045 28.944 25.539 25.9701 23.7507 23.5036M26.5 32.0007L26 32M26.5 32.0007C26.5 32.0005 26.5 32.0002 26.5 32H26M26.5 32.0007C26.5 32.5077 26.4742 33.0073 26.4241 33.5M23.7507 23.5036L26 32M23.7507 23.5036C25.0677 22.8449 26.5223 22.5003 27.9999 22.5003C29.6675 22.5002 31.3057 22.9392 32.7499 23.773C34.1941 24.6067 35.3933 25.806 36.2272 27.2501C37.061 28.6942 37.5 30.3324 37.5 32V33.5M23.7507 23.5036L37.5 33.5M26 32C26 32.5075 25.9733 33.0072 25.9214 33.5H26.4241M26.4241 33.5H37.5M26.4241 33.5H37.5M17.5 12C17.5 13.4587 16.9205 14.8576 15.8891 15.8891C14.8576 16.9205 13.4587 17.5 12 17.5C10.5413 17.5 9.14236 16.9205 8.11091 15.8891C7.07946 14.8576 6.5 13.4587 6.5 12C6.5 10.5413 7.07946 9.14236 8.11091 8.11091C9.14236 7.07946 10.5413 6.5 12 6.5C13.4587 6.5 14.8576 7.07946 15.8891 8.11091C16.9205 9.14236 17.5 10.5413 17.5 12ZM33.5 12C33.5 12.7223 33.3577 13.4375 33.0813 14.1048C32.8049 14.772 32.3998 15.3784 31.8891 15.8891C31.3784 16.3998 30.7721 16.8049 30.1048 17.0813C29.4375 17.3577 28.7223 17.5 28 17.5C27.2777 17.5 26.5625 17.3577 25.8952 17.0813C25.2279 16.8049 24.6216 16.3998 24.1109 15.8891C23.6002 15.3784 23.1951 14.772 22.9187 14.1048C22.6423 13.4375 22.5 12.7223 22.5 12C22.5 10.5413 23.0795 9.14236 24.1109 8.11091C25.1424 7.07946 26.5413 6.5 28 6.5C29.4587 6.5 30.8576 7.07946 31.8891 8.11091C32.9205 9.14236 33.5 10.5413 33.5 12ZM12 22.5C14.5196 22.5 16.9359 23.5009 18.7175 25.2825C20.4991 27.0641 21.5 29.4804 21.5 32V33.5H2.5V32C2.5 29.4804 3.50089 27.0641 5.28249 25.2825C7.06408 23.5009 9.48044 22.5 12 22.5Z" fill="#9CA3AF" stroke="#9CA3AF"/>
</svg>
