<svg width="24" height="24" viewBox="0 0 24 24" fill="none" xmlns="http://www.w3.org/2000/svg">
<path fill-rule="evenodd" clip-rule="evenodd" d="M5.5788 3.70081C5.86979 3.82868 6.09817 4.06677 6.21381 4.36284C6.32944 4.65891 6.3229 4.98876 6.1956 5.28001C5.27127 7.39957 4.79608 9.68766 4.8 12C4.8 14.3916 5.2992 16.6632 6.1968 18.72C6.31277 19.0095 6.31147 19.3328 6.19317 19.6214C6.07488 19.9099 5.84889 20.1411 5.56307 20.2659C5.27726 20.3907 4.95408 20.3994 4.66201 20.29C4.36995 20.1806 4.13193 19.9618 3.9984 19.68C2.94108 17.2578 2.39685 14.6429 2.4 12C2.4 9.27121 2.97 6.67201 3.9984 4.32001C4.06149 4.17556 4.15242 4.04496 4.26599 3.93566C4.37957 3.82636 4.51356 3.74051 4.66033 3.68301C4.80709 3.62551 4.96374 3.59748 5.12133 3.60054C5.27893 3.60359 5.43438 3.63766 5.5788 3.70081ZM15.552 8.40001C15.0122 8.40013 14.4794 8.52163 13.9929 8.75552C13.5064 8.98941 13.0788 9.3297 12.7416 9.75121L12.348 10.2432L12.2148 9.90841C12.0367 9.46328 11.7293 9.0817 11.3324 8.81286C10.9354 8.54401 10.467 8.40021 9.9876 8.40001H9.6C9.28174 8.40001 8.97652 8.52643 8.75147 8.75148C8.52643 8.97652 8.4 9.28175 8.4 9.60001C8.4 9.91827 8.52643 10.2235 8.75147 10.4485C8.97652 10.6736 9.28174 10.8 9.6 10.8H9.9876L10.626 12.396L9.384 13.95C9.27152 14.0905 9.12889 14.2039 8.96666 14.2818C8.80443 14.3597 8.62676 14.4001 8.4468 14.4H8.4C8.08174 14.4 7.77652 14.5264 7.55147 14.7515C7.32643 14.9765 7.2 15.2817 7.2 15.6C7.2 15.9183 7.32643 16.2235 7.55147 16.4485C7.77652 16.6736 8.08174 16.8 8.4 16.8H8.4468C8.98658 16.7999 9.51942 16.6784 10.0059 16.4445C10.4924 16.2106 10.92 15.8703 11.2572 15.4488L11.6508 14.9568L11.784 15.2916C11.9622 15.7369 12.2697 16.1186 12.6669 16.3875C13.0641 16.6564 13.5328 16.8 14.0124 16.8H14.4C14.7183 16.8 15.0235 16.6736 15.2485 16.4485C15.4736 16.2235 15.6 15.9183 15.6 15.6C15.6 15.2817 15.4736 14.9765 15.2485 14.7515C15.0235 14.5264 14.7183 14.4 14.4 14.4H14.0124L13.374 12.804L14.616 11.25C14.7285 11.1095 14.8711 10.9961 15.0333 10.9182C15.1956 10.8403 15.3732 10.7999 15.5532 10.8H15.6C15.9183 10.8 16.2235 10.6736 16.4485 10.4485C16.6736 10.2235 16.8 9.91827 16.8 9.60001C16.8 9.28175 16.6736 8.97652 16.4485 8.75148C16.2235 8.52643 15.9183 8.40001 15.6 8.40001H15.5532H15.552ZM17.8008 5.28001C17.6755 4.98866 17.6706 4.65954 17.7872 4.36459C17.9038 4.06964 18.1324 3.83285 18.4231 3.70598C18.7138 3.57912 19.0429 3.57249 19.3385 3.68755C19.634 3.8026 19.872 4.02999 20.0004 4.32001C21.0581 6.74211 21.6028 9.35702 21.6 12C21.6 14.7288 21.03 17.328 20.0016 19.68C19.9418 19.8292 19.8527 19.9648 19.7396 20.0789C19.6264 20.193 19.4915 20.2832 19.3428 20.3441C19.1941 20.4051 19.0347 20.4355 18.874 20.4337C18.7134 20.4319 18.5547 20.3978 18.4074 20.3335C18.2602 20.2692 18.1273 20.176 18.0168 20.0594C17.9062 19.9427 17.8202 19.8051 17.7639 19.6546C17.7075 19.5041 17.6819 19.3439 17.6887 19.1833C17.6955 19.0228 17.7344 18.8652 17.8032 18.72C18.728 16.6005 19.2036 14.3124 19.2 12C19.2 9.60841 18.7008 7.33681 17.802 5.28001H17.8008Z" fill="#9CA3AF"/>
</svg>
